<svg width="41" height="31" viewBox="0 0 41 31" fill="none" xmlns="http://www.w3.org/2000/svg">
<rect x="3" y="29" width="26" height="35" rx="1" transform="rotate(-90 3 29)" fill="#B0AFAA" stroke="black" stroke-width="2"/>
<rect x="26.5" y="24.4932" width="17" height="94" rx="2.5" transform="rotate(-90 26.5 24.4932)" fill="black"/>
<rect x="27" y="23.9932" width="4" height="93" rx="2" transform="rotate(-90 27 23.9932)" fill="#C6B78E"/>
<rect x="27" y="23.9932" width="4" height="93" rx="2" transform="rotate(-90 27 23.9932)" fill="url(#paint0_linear)" fill-opacity="0.25"/>
<rect x="27" y="23.9932" width="4" height="93" rx="2" transform="rotate(-90 27 23.9932)" stroke="black"/>
<rect x="27" y="19.9932" width="4" height="93" rx="2" transform="rotate(-90 27 19.9932)" fill="#76AE62"/>
<rect x="27" y="19.9932" width="4" height="93" rx="2" transform="rotate(-90 27 19.9932)" fill="url(#paint1_linear)" fill-opacity="0.25"/>
<rect x="27" y="19.9932" width="4" height="93" rx="2" transform="rotate(-90 27 19.9932)" stroke="black"/>
<rect x="27" y="15.9932" width="4" height="93" rx="2" transform="rotate(-90 27 15.9932)" fill="#6EA9C8"/>
<rect x="27" y="15.9932" width="4" height="93" rx="2" transform="rotate(-90 27 15.9932)" fill="url(#paint2_linear)" fill-opacity="0.25"/>
<rect x="27" y="15.9932" width="4" height="93" rx="2" transform="rotate(-90 27 15.9932)" stroke="black"/>
<rect x="27" y="11.9932" width="4" height="93" rx="2" transform="rotate(-90 27 11.9932)" fill="#BA738B"/>
<rect x="27" y="11.9932" width="4" height="93" rx="2" transform="rotate(-90 27 11.9932)" fill="url(#paint3_linear)" fill-opacity="0.25"/>
<rect x="27" y="11.9932" width="4" height="93" rx="2" transform="rotate(-90 27 11.9932)" stroke="black"/>
<rect x="26.5" y="24.4932" width="17" height="94" rx="2.5" transform="rotate(-90 26.5 24.4932)" stroke="black"/>
<defs>
<linearGradient id="paint0_linear" x1="27" y1="34.6424" x2="31" y2="34.6424" gradientUnits="userSpaceOnUse">
<stop offset="0.371148" stop-color="white"/>
<stop offset="0.373625" stop-color="white" stop-opacity="0"/>
<stop offset="0.618578" stop-color="white" stop-opacity="0"/>
<stop offset="0.627013"/>
</linearGradient>
<linearGradient id="paint1_linear" x1="27" y1="30.6424" x2="31" y2="30.6424" gradientUnits="userSpaceOnUse">
<stop offset="0.371148" stop-color="white"/>
<stop offset="0.373625" stop-color="white" stop-opacity="0"/>
<stop offset="0.618578" stop-color="white" stop-opacity="0"/>
<stop offset="0.627013"/>
</linearGradient>
<linearGradient id="paint2_linear" x1="27" y1="26.6424" x2="31" y2="26.6424" gradientUnits="userSpaceOnUse">
<stop offset="0.371148" stop-color="white"/>
<stop offset="0.373625" stop-color="white" stop-opacity="0"/>
<stop offset="0.618578" stop-color="white" stop-opacity="0"/>
<stop offset="0.627013"/>
</linearGradient>
<linearGradient id="paint3_linear" x1="27" y1="22.6424" x2="31" y2="22.6424" gradientUnits="userSpaceOnUse">
<stop offset="0.371148" stop-color="white"/>
<stop offset="0.373625" stop-color="white" stop-opacity="0"/>
<stop offset="0.618578" stop-color="white" stop-opacity="0"/>
<stop offset="0.627013"/>
</linearGradient>
</defs>
</svg>
