<svg width="64" height="64" viewBox="0 0 64 64" fill="none" xmlns="http://www.w3.org/2000/svg">
<g filter="url(#filter0_d)">
<path d="M4 46.087V25.17L16.5217 9.69565L41.9565 5L59.1739 23.996V48.4348L26.6957 59L4 46.087Z" fill="#E92B2B"/>
<path d="M2.82609 46.087V46.7697L3.41947 47.1073L26.1151 60.0203L26.5658 60.2767L27.0588 60.1163L59.5371 49.5511L60.3478 49.2874V48.4348V23.996V23.5432L60.0437 23.2077L42.8263 4.21164L42.3869 3.7268L41.7434 3.8456L16.3086 8.54125L15.882 8.62L15.6092 8.95721L3.08744 24.4315L2.82609 24.7545V25.17V46.087Z" stroke="black" stroke-width="2.34783"/>
</g>
<path fill-rule="evenodd" clip-rule="evenodd" d="M59.1738 23.996L26.6956 32.2134V59L59.1738 48.4348V23.996Z" fill="#822121"/>
<path d="M16.522 9.69565L26.6959 32.2134L59.1741 23.996L41.9568 5L16.522 9.69565Z" fill="#B71717"/>
<path d="M16.4891 13H25.7291C28.7157 13 31.0357 13.7333 32.6891 15.2C34.3691 16.64 35.2091 18.9333 35.2091 22.08C35.2091 25.1733 34.3691 27.4667 32.6891 28.96C31.0091 30.4533 28.6891 31.2 25.7291 31.2H20.4891V41H16.4891V13ZM25.1691 27.8C27.2224 27.8 28.7557 27.3333 29.7691 26.4C30.7824 25.4667 31.2891 24.04 31.2891 22.12C31.2891 20.1733 30.7957 18.7333 29.8091 17.8C28.8491 16.8667 27.3024 16.4 25.1691 16.4H20.4891V27.8H25.1691ZM44.1491 51C41.3757 51 39.1224 50.4933 37.3891 49.48C35.6824 48.4667 34.8291 47.0267 34.8291 45.16C34.8291 43.1067 35.9624 41.5733 38.2291 40.56C36.9491 39.92 36.3091 39.0933 36.3091 38.08C36.3091 36.8 37.0824 35.8533 38.6291 35.24C37.5357 34.5733 36.6957 33.6667 36.1091 32.52C35.5224 31.3733 35.2291 30.08 35.2291 28.64C35.2291 27.2 35.5491 25.9067 36.1891 24.76C36.8557 23.5867 37.7891 22.6667 38.9891 22C40.2157 21.3333 41.6557 21 43.3091 21C45.0691 21 46.6691 21.5067 48.1091 22.52C49.5224 21.72 51.1491 21.32 52.9891 21.32H53.3091L52.8691 23.72H51.9491C51.7091 23.72 51.3624 23.7467 50.9091 23.8C50.4557 23.8533 50.0557 23.92 49.7091 24C50.2691 24.64 50.6957 25.36 50.9891 26.16C51.2824 26.96 51.4291 27.7867 51.4291 28.64C51.4291 30.1333 51.0957 31.48 50.4291 32.68C49.7891 33.8533 48.8557 34.7867 47.6291 35.48C46.4024 36.1467 44.9624 36.48 43.3091 36.48C42.3491 36.48 41.4691 36.36 40.6691 36.12C40.0557 36.3333 39.7491 36.68 39.7491 37.16C39.7491 37.8 40.4824 38.2267 41.9491 38.44L47.1891 39.28C49.3757 39.6267 51.0291 40.2533 52.1491 41.16C53.2691 42.0667 53.8291 43.32 53.8291 44.92C53.8291 46.92 52.9624 48.4267 51.2291 49.44C49.5224 50.48 47.1624 51 44.1491 51ZM43.3091 33.6C44.8024 33.6 45.9491 33.16 46.7491 32.28C47.5757 31.3733 47.9891 30.1733 47.9891 28.68C47.9891 27.24 47.5757 26.08 46.7491 25.2C45.9491 24.32 44.8024 23.88 43.3091 23.88C41.8157 23.88 40.6691 24.32 39.8691 25.2C39.0691 26.08 38.6691 27.24 38.6691 28.68C38.6691 30.1733 39.0691 31.3733 39.8691 32.28C40.6691 33.16 41.8157 33.6 43.3091 33.6ZM44.4691 47.8C46.3091 47.8 47.7224 47.56 48.7091 47.08C49.6957 46.6 50.1891 45.9067 50.1891 45C50.1891 44.3067 49.8824 43.7467 49.2691 43.32C48.6824 42.92 47.7891 42.6 46.5891 42.36L40.9891 41.4C40.1891 41.7733 39.5357 42.2267 39.0291 42.76C38.5224 43.32 38.2691 43.9333 38.2691 44.6C38.2691 45.6933 38.8157 46.4933 39.9091 47C41.0024 47.5333 42.5224 47.8 44.4691 47.8Z" fill="white"/>
<path d="M16.4891 13V11H14.4891V13H16.4891ZM32.6891 15.2L31.3618 16.6961L31.3746 16.7074L31.3875 16.7185L32.6891 15.2ZM32.6891 28.96L31.3603 27.4652L31.3603 27.4652L32.6891 28.96ZM20.4891 31.2V29.2H18.4891V31.2H20.4891ZM20.4891 41V43H22.4891V41H20.4891ZM16.4891 41H14.4891V43H16.4891V41ZM29.7691 26.4L31.124 27.8711H31.124L29.7691 26.4ZM29.8091 17.8L28.4149 19.234L28.4247 19.2435L28.4347 19.2529L29.8091 17.8ZM20.4891 16.4V14.4H18.4891V16.4H20.4891ZM20.4891 27.8H18.4891V29.8H20.4891V27.8ZM16.4891 15H25.7291V11H16.4891V15ZM25.7291 15C28.4002 15 30.1862 15.6533 31.3618 16.6961L34.0163 13.7038C31.8852 11.8134 29.0313 11 25.7291 11V15ZM31.3875 16.7185C32.4616 17.6392 33.2091 19.2623 33.2091 22.08H37.2091C37.2091 18.6044 36.2765 15.6408 33.9906 13.6815L31.3875 16.7185ZM33.2091 22.08C33.2091 24.8257 32.4707 26.4782 31.3603 27.4652L34.0178 30.4548C36.2675 28.4551 37.2091 25.5209 37.2091 22.08H33.2091ZM31.3603 27.4652C30.1496 28.5414 28.3575 29.2 25.7291 29.2V33.2C29.0206 33.2 31.8685 32.3653 34.0178 30.4548L31.3603 27.4652ZM25.7291 29.2H20.4891V33.2H25.7291V29.2ZM18.4891 31.2V41H22.4891V31.2H18.4891ZM20.4891 39H16.4891V43H20.4891V39ZM18.4891 41V13H14.4891V41H18.4891ZM25.1691 29.8C27.4834 29.8 29.5959 29.2786 31.124 27.8711L28.4141 24.9289C27.9156 25.3881 26.9614 25.8 25.1691 25.8V29.8ZM31.124 27.8711C32.6899 26.4288 33.2891 24.3723 33.2891 22.12H29.2891C29.2891 23.7077 28.8749 24.5045 28.4141 24.9289L31.124 27.8711ZM33.2891 22.12C33.2891 19.8653 32.7164 17.7971 31.1835 16.3471L28.4347 19.2529C28.8751 19.6695 29.2891 20.4813 29.2891 22.12H33.2891ZM31.2032 16.366C29.7008 14.9054 27.5265 14.4 25.1691 14.4V18.4C27.0783 18.4 27.9973 18.828 28.4149 19.234L31.2032 16.366ZM25.1691 14.4H20.4891V18.4H25.1691V14.4ZM18.4891 16.4V27.8H22.4891V16.4H18.4891ZM20.4891 29.8H25.1691V25.8H20.4891V29.8ZM37.3891 49.48L36.368 51.1997L36.3797 51.2066L37.3891 49.48ZM38.2291 40.56L39.0453 42.3858L42.9034 40.6611L39.1235 38.7711L38.2291 40.56ZM38.6291 35.24L39.3663 37.0992L43.0949 35.6206L39.6703 33.5324L38.6291 35.24ZM36.1091 32.52L34.3286 33.431V33.431L36.1091 32.52ZM36.1891 24.76L34.4501 23.772L34.4464 23.7786L34.4427 23.7853L36.1891 24.76ZM38.9891 22L38.034 20.2427L38.0259 20.2472L38.0178 20.2517L38.9891 22ZM48.1091 22.52L46.9581 24.1556L47.993 24.8839L49.0943 24.2605L48.1091 22.52ZM53.3091 21.32L55.2763 21.6807L55.7091 19.32H53.3091V21.32ZM52.8691 23.72V25.72H54.5357L54.8363 24.0807L52.8691 23.72ZM50.9091 23.8L51.1427 25.7863H51.1427L50.9091 23.8ZM49.7091 24L49.2593 22.0512L46.0037 22.8025L48.2039 25.317L49.7091 24ZM50.9891 26.16L49.1113 26.8485V26.8485L50.9891 26.16ZM50.4291 32.68L48.6807 31.7087L48.677 31.7155L48.6733 31.7223L50.4291 32.68ZM47.6291 35.48L48.5841 37.2372L48.5987 37.2293L48.6132 37.2211L47.6291 35.48ZM40.6691 36.12L41.2438 34.2043L40.6236 34.0183L40.012 34.231L40.6691 36.12ZM41.9491 38.44L42.2656 36.4652L42.2513 36.4629L42.2369 36.4608L41.9491 38.44ZM47.1891 39.28L46.8725 41.2548L46.8759 41.2553L47.1891 39.28ZM52.1491 41.16L50.8907 42.7145L52.1491 41.16ZM51.2291 49.44L50.2197 47.7134L50.2039 47.7226L50.1883 47.7321L51.2291 49.44ZM46.7491 32.28L45.2711 30.9325L45.2692 30.9347L46.7491 32.28ZM46.7491 25.2L45.2692 26.5453L45.2802 26.5574L45.2914 26.5694L46.7491 25.2ZM39.8691 25.2L41.3489 26.5453L39.8691 25.2ZM39.8691 32.28L38.3694 33.6032L38.3792 33.6144L38.3892 33.6253L39.8691 32.28ZM48.7091 47.08L49.584 48.8785L48.7091 47.08ZM49.2691 43.32L50.4112 41.6782L50.4035 41.6728L50.3957 41.6675L49.2691 43.32ZM46.5891 42.36L46.9813 40.3988L46.9542 40.3934L46.927 40.3888L46.5891 42.36ZM40.9891 41.4L41.327 39.4288L40.7103 39.323L40.1433 39.5876L40.9891 41.4ZM39.0291 42.76L37.5791 41.3825L37.5623 41.4001L37.546 41.4182L39.0291 42.76ZM39.9091 47L40.7859 45.2025L40.768 45.1937L40.75 45.1854L39.9091 47ZM44.1491 49C41.6012 49 39.7305 48.5321 38.3985 47.7534L36.3797 51.2066C38.5143 52.4546 41.1503 53 44.1491 53V49ZM38.4101 47.7603C37.2636 47.0795 36.8291 46.2681 36.8291 45.16H32.8291C32.8291 47.7852 34.1012 49.8538 36.368 51.1997L38.4101 47.7603ZM36.8291 45.16C36.8291 44.5264 36.9951 44.0543 37.2874 43.6588C37.5965 43.2406 38.134 42.7932 39.0453 42.3858L37.4128 38.7342C36.0574 39.3401 34.8949 40.1661 34.0707 41.2812C33.2297 42.4191 32.8291 43.7403 32.8291 45.16H36.8291ZM39.1235 38.7711C38.6584 38.5386 38.452 38.3409 38.3705 38.2357C38.3126 38.1608 38.3091 38.1285 38.3091 38.08H34.3091C34.3091 40.1521 35.6967 41.5299 37.3346 42.3489L39.1235 38.7711ZM38.3091 38.08C38.3091 37.8777 38.3576 37.7737 38.4379 37.6753C38.5452 37.544 38.8002 37.3236 39.3663 37.0992L37.8918 33.3808C36.9112 33.7697 36.0063 34.3293 35.3402 35.1447C34.6472 35.993 34.3091 37.0023 34.3091 38.08H38.3091ZM39.6703 33.5324C38.8941 33.0591 38.3091 32.429 37.8896 31.609L34.3286 33.431C35.0824 34.9043 36.1773 36.0875 37.5878 36.9476L39.6703 33.5324ZM37.8896 31.609C37.4635 30.7762 37.2291 29.8011 37.2291 28.64H33.2291C33.2291 30.3589 33.5813 31.9704 34.3286 33.431L37.8896 31.609ZM37.2291 28.64C37.2291 27.5074 37.4775 26.5553 37.9355 25.7347L34.4427 23.7853C33.6206 25.2581 33.2291 26.8926 33.2291 28.64H37.2291ZM37.928 25.748C38.4101 24.8995 39.0753 24.24 39.9604 23.7483L38.0178 20.2517C36.5028 21.0933 35.3014 22.2738 34.4501 23.772L37.928 25.748ZM39.9441 23.7572C40.828 23.2769 41.9279 23 43.3091 23V19C41.3836 19 39.6035 19.3898 38.034 20.2427L39.9441 23.7572ZM43.3091 23C44.6568 23 45.8549 23.3793 46.9581 24.1556L49.26 20.8844C47.4832 19.634 45.4813 19 43.3091 19V23ZM49.0943 24.2605C50.1689 23.6522 51.4477 23.32 52.9891 23.32V19.32C50.8505 19.32 48.8759 19.7878 47.1239 20.7795L49.0943 24.2605ZM52.9891 23.32H53.3091V19.32H52.9891V23.32ZM51.3419 20.9593L50.9019 23.3593L54.8363 24.0807L55.2763 21.6807L51.3419 20.9593ZM52.8691 21.72H51.9491V25.72H52.8691V21.72ZM51.9491 21.72C51.5899 21.72 51.1504 21.7578 50.6754 21.8137L51.1427 25.7863C51.5744 25.7355 51.8283 25.72 51.9491 25.72V21.72ZM50.6754 21.8137C50.1686 21.8733 49.6939 21.9509 49.2593 22.0512L50.1588 25.9488C50.4176 25.8891 50.7429 25.8333 51.1427 25.7863L50.6754 21.8137ZM48.2039 25.317C48.6018 25.7718 48.9024 26.2786 49.1113 26.8485L52.8668 25.4715C52.4891 24.4414 51.9363 23.5082 51.2142 22.683L48.2039 25.317ZM49.1113 26.8485C49.3237 27.4276 49.4291 28.0212 49.4291 28.64H53.4291C53.4291 27.5521 53.2411 26.4924 52.8668 25.4715L49.1113 26.8485ZM49.4291 28.64C49.4291 29.8241 49.1681 30.8315 48.6807 31.7087L52.1774 33.6513C53.0234 32.1285 53.4291 30.4426 53.4291 28.64H49.4291ZM48.6733 31.7223C48.2221 32.5494 47.5647 33.219 46.6449 33.7389L48.6132 37.2211C50.1467 36.3543 51.356 35.1573 52.1849 33.6377L48.6733 31.7223ZM46.674 33.7227C45.7901 34.2031 44.6903 34.48 43.3091 34.48V38.48C45.2345 38.48 47.0147 38.0902 48.5841 37.2372L46.674 33.7227ZM43.3091 34.48C42.5153 34.48 41.8319 34.3808 41.2438 34.2043L40.0944 38.0357C41.1062 38.3392 42.1829 38.48 43.3091 38.48V34.48ZM40.012 34.231C39.505 34.4074 38.9351 34.7016 38.4811 35.2149C37.9914 35.7684 37.7491 36.4517 37.7491 37.16H41.7491C41.7491 37.2563 41.733 37.3824 41.6817 37.5206C41.63 37.66 41.5556 37.7764 41.4771 37.8651C41.3297 38.0317 41.2198 38.046 41.3261 38.009L40.012 34.231ZM37.7491 37.16C37.7491 38.4218 38.5394 39.2501 39.2933 39.6887C39.9877 40.0927 40.8352 40.299 41.6612 40.4192L42.2369 36.4608C41.9368 36.4172 41.7101 36.3676 41.5452 36.3196C41.464 36.296 41.4044 36.2746 41.3628 36.2577C41.3209 36.2407 41.3037 36.2306 41.3049 36.2313C41.3059 36.2319 41.3325 36.2474 41.3735 36.2831C41.4152 36.3195 41.4744 36.3793 41.5346 36.4669C41.6694 36.663 41.7491 36.9106 41.7491 37.16H37.7491ZM41.6325 40.4148L46.8725 41.2548L47.5056 37.3052L42.2656 36.4652L41.6325 40.4148ZM46.8759 41.2553C48.8865 41.5741 50.1519 42.1164 50.8907 42.7145L53.4075 39.6055C51.9062 38.3902 49.865 37.6793 47.5022 37.3047L46.8759 41.2553ZM50.8907 42.7145C51.4858 43.1963 51.8291 43.8479 51.8291 44.92H55.8291C55.8291 42.7921 55.0523 40.9371 53.4075 39.6055L50.8907 42.7145ZM51.8291 44.92C51.8291 46.2059 51.3425 47.057 50.2197 47.7134L52.2385 51.1666C54.5823 49.7963 55.8291 47.6341 55.8291 44.92H51.8291ZM50.1883 47.7321C48.9158 48.5076 46.9683 49 44.1491 49V53C47.3565 53 50.129 52.4524 52.2698 51.1479L50.1883 47.7321ZM43.3091 35.6C45.2116 35.6 46.9572 35.0242 48.2289 33.6253L45.2692 30.9347C44.9409 31.2958 44.3932 31.6 43.3091 31.6V35.6ZM48.227 33.6275C49.459 32.2762 49.9891 30.5581 49.9891 28.68H45.9891C45.9891 29.7885 45.6924 30.4704 45.2712 30.9325L48.227 33.6275ZM49.9891 28.68C49.9891 26.8353 49.4471 25.151 48.2068 23.8306L45.2914 26.5694C45.7044 27.009 45.9891 27.6447 45.9891 28.68H49.9891ZM48.2289 23.8547C46.9572 22.4558 45.2116 21.88 43.3091 21.88V25.88C44.3932 25.88 44.9409 26.1842 45.2692 26.5453L48.2289 23.8547ZM43.3091 21.88C41.4065 21.88 39.6609 22.4558 38.3892 23.8547L41.3489 26.5453C41.6772 26.1842 42.2249 25.88 43.3091 25.88V21.88ZM38.3892 23.8547C37.187 25.177 36.6691 26.8528 36.6691 28.68H40.6691C40.6691 27.6272 40.9511 26.983 41.3489 26.5453L38.3892 23.8547ZM36.6691 28.68C36.6691 30.5414 37.176 32.2507 38.3694 33.6032L41.3687 30.9568C40.9622 30.496 40.6691 29.8052 40.6691 28.68H36.6691ZM38.3892 33.6253C39.6609 35.0242 41.4065 35.6 43.3091 35.6V31.6C42.2249 31.6 41.6772 31.2958 41.3489 30.9347L38.3892 33.6253ZM44.4691 49.8C46.433 49.8 48.1997 49.5519 49.584 48.8785L47.8341 45.2815C47.2451 45.5681 46.1851 45.8 44.4691 45.8V49.8ZM49.584 48.8785C50.2936 48.5333 50.9597 48.0467 51.4486 47.3595C51.9524 46.6515 52.1891 45.8401 52.1891 45H48.1891C48.1891 45.0434 48.1835 45.0568 48.1853 45.0507C48.1876 45.0435 48.1912 45.0381 48.1895 45.0405C48.1851 45.0466 48.1112 45.1467 47.8341 45.2815L49.584 48.8785ZM52.1891 45C52.1891 43.5944 51.5129 42.4446 50.4112 41.6782L48.1269 44.9618C48.1761 44.996 48.2002 45.0197 48.2088 45.0289C48.2166 45.0373 48.2126 45.0347 48.2049 45.0206C48.1969 45.0062 48.1915 44.9912 48.1889 44.9803C48.1864 44.9703 48.1891 44.975 48.1891 45H52.1891ZM50.3957 41.6675C49.4823 41.0448 48.2814 40.6589 46.9813 40.3988L46.1968 44.3212C47.2967 44.5411 47.8825 44.7952 48.1424 44.9725L50.3957 41.6675ZM46.927 40.3888L41.327 39.4288L40.6511 43.3712L46.2511 44.3312L46.927 40.3888ZM40.1433 39.5876C39.1607 40.0462 38.2889 40.6353 37.5791 41.3825L40.4791 44.1375C40.7826 43.818 41.2174 43.5005 41.8348 43.2124L40.1433 39.5876ZM37.546 41.4182C36.754 42.2935 36.2691 43.3711 36.2691 44.6H40.2691C40.2691 44.4956 40.2908 44.3465 40.5121 44.1018L37.546 41.4182ZM36.2691 44.6C36.2691 45.4957 36.4988 46.3743 37.0278 47.1484C37.5486 47.9105 38.2735 48.4464 39.0681 48.8146L40.75 45.1854C40.4513 45.0469 40.3562 44.9295 40.3304 44.8916C40.3127 44.8657 40.2691 44.7976 40.2691 44.6H36.2691ZM39.0322 48.7975C40.5145 49.5206 42.381 49.8 44.4691 49.8V45.8C42.6638 45.8 41.4903 45.5461 40.7859 45.2025L39.0322 48.7975Z" fill="black" fill-opacity="0.2"/>
<defs>
<filter id="filter0_d" x="1.6521" y="2.45361" width="62.2174" height="61.4477" filterUnits="userSpaceOnUse" color-interpolation-filters="sRGB">
<feFlood flood-opacity="0" result="BackgroundImageFix"/>
<feColorMatrix in="SourceAlpha" type="matrix" values="0 0 0 0 0 0 0 0 0 0 0 0 0 0 0 0 0 0 127 0"/>
<feOffset dx="2.34783" dy="2.34783"/>
<feColorMatrix type="matrix" values="0 0 0 0 0 0 0 0 0 0 0 0 0 0 0 0 0 0 0.25 0"/>
<feBlend mode="normal" in2="BackgroundImageFix" result="effect1_dropShadow"/>
<feBlend mode="normal" in="SourceGraphic" in2="effect1_dropShadow" result="shape"/>
</filter>
</defs>
</svg>
