<svg width="21" height="21" viewBox="0 0 21 21" fill="none" xmlns="http://www.w3.org/2000/svg">
<rect x="-34.5" y="18.4932" width="17" height="94" rx="2.5" transform="rotate(-90 -34.5 18.4932)" fill="black"/>
<rect x="-34" y="17.9932" width="4" height="93" rx="2" transform="rotate(-90 -34 17.9932)" fill="#C6B78E"/>
<rect x="-34" y="17.9932" width="4" height="93" rx="2" transform="rotate(-90 -34 17.9932)" fill="url(#paint0_linear)" fill-opacity="0.25"/>
<rect x="-34" y="17.9932" width="4" height="93" rx="2" transform="rotate(-90 -34 17.9932)" stroke="black"/>
<rect x="-34" y="13.9932" width="4" height="93" rx="2" transform="rotate(-90 -34 13.9932)" fill="#76AE62"/>
<rect x="-34" y="13.9932" width="4" height="93" rx="2" transform="rotate(-90 -34 13.9932)" fill="url(#paint1_linear)" fill-opacity="0.25"/>
<rect x="-34" y="13.9932" width="4" height="93" rx="2" transform="rotate(-90 -34 13.9932)" stroke="black"/>
<rect x="-34" y="9.99316" width="4" height="93" rx="2" transform="rotate(-90 -34 9.99316)" fill="#6EA9C8"/>
<rect x="-34" y="9.99316" width="4" height="93" rx="2" transform="rotate(-90 -34 9.99316)" fill="url(#paint2_linear)" fill-opacity="0.25"/>
<rect x="-34" y="9.99316" width="4" height="93" rx="2" transform="rotate(-90 -34 9.99316)" stroke="black"/>
<rect x="-34" y="5.99316" width="4" height="93" rx="2" transform="rotate(-90 -34 5.99316)" fill="#BA738B"/>
<rect x="-34" y="5.99316" width="4" height="93" rx="2" transform="rotate(-90 -34 5.99316)" fill="url(#paint3_linear)" fill-opacity="0.25"/>
<rect x="-34" y="5.99316" width="4" height="93" rx="2" transform="rotate(-90 -34 5.99316)" stroke="black"/>
<rect x="-34.5" y="18.4932" width="17" height="94" rx="2.5" transform="rotate(-90 -34.5 18.4932)" stroke="black"/>
<defs>
<linearGradient id="paint0_linear" x1="-34" y1="28.6424" x2="-30" y2="28.6424" gradientUnits="userSpaceOnUse">
<stop offset="0.371148" stop-color="white"/>
<stop offset="0.373625" stop-color="white" stop-opacity="0"/>
<stop offset="0.618578" stop-color="white" stop-opacity="0"/>
<stop offset="0.627013"/>
</linearGradient>
<linearGradient id="paint1_linear" x1="-34" y1="24.6424" x2="-30" y2="24.6424" gradientUnits="userSpaceOnUse">
<stop offset="0.371148" stop-color="white"/>
<stop offset="0.373625" stop-color="white" stop-opacity="0"/>
<stop offset="0.618578" stop-color="white" stop-opacity="0"/>
<stop offset="0.627013"/>
</linearGradient>
<linearGradient id="paint2_linear" x1="-34" y1="20.6424" x2="-30" y2="20.6424" gradientUnits="userSpaceOnUse">
<stop offset="0.371148" stop-color="white"/>
<stop offset="0.373625" stop-color="white" stop-opacity="0"/>
<stop offset="0.618578" stop-color="white" stop-opacity="0"/>
<stop offset="0.627013"/>
</linearGradient>
<linearGradient id="paint3_linear" x1="-34" y1="16.6424" x2="-30" y2="16.6424" gradientUnits="userSpaceOnUse">
<stop offset="0.371148" stop-color="white"/>
<stop offset="0.373625" stop-color="white" stop-opacity="0"/>
<stop offset="0.618578" stop-color="white" stop-opacity="0"/>
<stop offset="0.627013"/>
</linearGradient>
</defs>
</svg>
